<?xml version="1.0" encoding="UTF-8"?>
<svg id="_图层_1" data-name="图层 1" xmlns="http://www.w3.org/2000/svg" xmlns:xlink="http://www.w3.org/1999/xlink" viewBox="0 0 58 62">
  <defs>
    <style>
      .cls-1 {
        fill: #fff;
      }

      .cls-1, .cls-2, .cls-3, .cls-4 {
        fill-rule: evenodd;
      }

      .cls-2 {
        fill: url(#_未命名的渐变);
      }

      .cls-3 {
        fill: #a455f6;
      }

      .cls-4 {
        fill: #6768f9;
      }
    </style>
    <linearGradient id="_未命名的渐变" data-name="未命名的渐变" x1="1.75" y1="62.53" x2="56.25" y2="127.47" gradientTransform="translate(0 126) scale(1 -1)" gradientUnits="userSpaceOnUse">
      <stop offset="0" stop-color="#3a42fd"/>
      <stop offset=".65" stop-color="#010101"/>
      <stop offset="1" stop-color="#010101"/>
    </linearGradient>
  </defs>
  <path class="cls-2" d="M0,5.55C0,2.48,2.48,0,5.55,0h46.9c3.06,0,5.55,2.48,5.55,5.55v50.9c0,3.06-2.48,5.55-5.55,5.55H5.55c-3.06,0-5.55-2.48-5.55-5.55V5.55Z"/>
  <path class="cls-4" d="M10,20.39c0-.77.62-1.39,1.39-1.39h16.22c.77,0,1.39.62,1.39,1.39v18.22c0,.77-.62,1.39-1.39,1.39H11.39c-.77,0-1.39-.62-1.39-1.39v-18.22Z"/>
  <path class="cls-3" d="M26,34.01c0-.56.45-1.01,1.01-1.01h17.98c.56,0,1.01.45,1.01,1.01v18.98c0,.56-.45,1.01-1.01,1.01h-17.98c-.56,0-1.01-.45-1.01-1.01v-18.98Z"/>
  <path class="cls-1" d="M35.92,21.67c1.69,1.7,4.19,3.68,5.66,5.47.19.23.55.59.37.91l-23.87,20.95,5.99-16.61,4.71.81.18-.46c-4.33-2.14-9.09-5.58-10.12-10.61-.05-.28-.2-.68.23-.59,2.48.94,5.25,2.11,7.83,2.68.35.08.24-.05.24-.33l-10.51-6.61c-2.36-1.81-4.68-5.72-5.55-8.56-.07-.24-.11-.48-.08-.73l16.93,5.63c2.79,2.54,5.33,5.38,7.98,8.04Z"/>
  <path class="cls-1" d="M50.97,22.01c-.96.06-1.93-.47-2.88-.49-1.72-.04-4.07.96-5.3,2.17-.3.3-.89,1.39-1.25,1.31l-6.54-6.92c2.25-1.07,4.66-2.29,7.23-2.04,2.85.28,5.9,2.07,7.73,4.29.18.22,1.19,1.51,1.01,1.69h0Z"/>
</svg>