<?xml version="1.0" encoding="UTF-8"?>
<svg id="_图层_1" data-name="图层 1" xmlns="http://www.w3.org/2000/svg" viewBox="0 0 198 67">
  <defs>
    <style>
      .cls-1 {
        fill: #fff;
      }

      .cls-1, .cls-2, .cls-3 {
        fill-rule: evenodd;
      }

      .cls-2 {
        fill: #a455f6;
      }

      .cls-3 {
        fill: #6768f9;
      }
    </style>
  </defs>
  <path class="cls-3" d="M0,19.12c0-1.17.95-2.12,2.12-2.12h24.76c1.17,0,2.12.95,2.12,2.12v24.76c0,1.17-.95,2.12-2.12,2.12H2.12c-1.17,0-2.12-.95-2.12-2.12v-24.76Z"/>
  <path class="cls-2" d="M24,38.46c0-.81.66-1.46,1.46-1.46h26.07c.81,0,1.46.66,1.46,1.46v27.07c0,.81-.66,1.46-1.46,1.46h-26.07c-.81,0-1.46-.66-1.46-1.46v-27.07Z"/>
  <path class="cls-1" d="M38.18,20c2.45,2.48,6.09,5.39,8.21,8.01.27.34.8.86.54,1.33L12.29,60l8.7-24.31,6.84,1.19.25-.67c-6.28-3.13-13.2-8.17-14.69-15.53-.08-.41-.28-.99.34-.87,3.59,1.37,7.63,3.08,11.37,3.93.51.12.36-.08.35-.49l-15.25-9.67C6.77,10.94,3.4,5.22,2.13,1.07c-.11-.36-.16-.7-.12-1.07l24.58,8.23c4.05,3.72,7.74,7.87,11.58,11.77Z"/>
  <path class="cls-1" d="M59.96,20.01c-1.39.08-2.77-.63-4.14-.66-2.47-.05-5.85,1.28-7.62,2.9-.43.4-1.28,1.85-1.8,1.74l-9.4-9.23c3.23-1.43,6.7-3.05,10.4-2.72,4.1.37,8.48,2.76,11.12,5.71.26.3,1.71,2.01,1.45,2.25h0Z"/>
  <path class="cls-1" d="M101.99,35c.9,0,1.63.27,2.18.82.55.55.83,1.26.83,2.14s-.28,1.63-.83,2.2c-.55.56-1.28.84-2.18.84s-1.59-.29-2.15-.87c-.56-.58-.84-1.3-.84-2.17s.27-1.6.82-2.14c.54-.55,1.27-.82,2.18-.82Z"/>
  <path class="cls-1" d="M68.61,36h7.17l6.22,19h-6.27l-.84-3.5h-5.73l-.91,3.5h-6.25l6.61-19ZM71.95,40.13c-.02.21-.08.56-.19,1.05-.11.48-.65,2.57-1.62,6.25h3.67l-1.34-5.17c-.19-.76-.32-1.47-.39-2.13h-.13Z"/>
  <path class="cls-1" d="M152,36h7.53c2.59,0,4.48.51,5.68,1.52,1.2,1.02,1.8,2.6,1.8,4.74,0,1.3-.32,2.45-.95,3.46-.64,1.01-1.54,1.79-2.72,2.34-1.18.55-2.55.83-4.11.83h-1.69v6.11h-5.53v-19ZM157.53,40.11v4.69h1.24c1.59,0,2.38-.78,2.38-2.33,0-.78-.22-1.36-.65-1.76-.43-.4-1.08-.6-1.92-.6h-1.05Z"/>
  <path class="cls-1" d="M114.15,41c2.4,0,4.14.48,5.23,1.45,1.08.97,1.62,2.59,1.62,4.85v7.37h-5.37v-2.03h-.06c-.94,1.57-2.38,2.36-4.31,2.36-1.33,0-2.38-.37-3.13-1.12s-1.13-1.75-1.13-3c0-2.62,1.71-4.15,5.12-4.56l3.51-.43c0-.43-.21-.79-.62-1.07-.41-.28-.97-.42-1.67-.42-1.58,0-3.25.43-5.01,1.28v-3.61c.76-.31,1.72-.57,2.87-.77,1.15-.2,2.14-.3,2.95-.3ZM115.63,48.56l-1.99.26c-.99.16-1.49.6-1.49,1.32,0,.36.12.67.37.9.24.24.59.35,1.04.35.62,0,1.12-.22,1.5-.65.38-.43.57-.99.57-1.67v-.51Z"/>
  <path class="cls-1" d="M175.64,41c2.23,0,3.85.48,4.85,1.45,1,.97,1.51,2.59,1.51,4.85v7.37h-4.99v-2.03h-.05c-.87,1.57-2.21,2.36-4,2.36-1.24,0-2.21-.37-2.91-1.12-.7-.75-1.05-1.75-1.05-3,0-2.62,1.59-4.15,4.76-4.56l3.26-.43c0-.43-.19-.79-.58-1.07-.38-.28-.9-.42-1.55-.42-1.47,0-3.02.43-4.65,1.28v-3.61c.71-.31,1.6-.57,2.67-.77,1.07-.2,1.98-.3,2.74-.3ZM177.01,48.56l-1.85.26c-.92.16-1.39.6-1.39,1.32,0,.36.11.67.34.9.23.24.55.35.97.35.57,0,1.04-.22,1.39-.65.35-.43.53-.99.53-1.67v-.51Z"/>
  <path class="cls-1" d="M132.21,41c.3,0,.57.05.79.16v4.98c-.21-.1-.49-.19-.84-.27-.35-.08-.65-.12-.88-.12-1.83,0-2.74,1.09-2.74,3.28v5.96h-5.53v-13.76h5.53v2.42h.05c.34-.87.82-1.53,1.44-1.98.62-.45,1.35-.68,2.18-.68Z"/>
  <path class="cls-1" d="M82,42h5.53l1.56,7.1c.25,1.14.39,2,.41,2.58h.08c.02-.17.04-.34.07-.52.03-.18.65-3.23,1.85-9.15h5.51l-4.43,13h-6.3l-4.26-13Z"/>
  <path class="cls-1" d="M99,42h6v13h-6v-13Z"/>
  <path class="cls-1" d="M134,42h6.2l1.63,6.24c.32,1.16.49,1.94.51,2.35h.05c.03-.19.06-.39.11-.62.05-.23.73-2.88,2.05-7.97h5.45l-4.96,13.29c-.74,2.04-1.67,3.5-2.77,4.38-1.1.88-2.45,1.33-4.05,1.33-.53,0-1.09-.04-1.7-.13-.6-.09-1.14-.22-1.62-.39v-4.05c.22.16.55.31.98.44.43.13.84.2,1.23.2,1.04,0,1.74-.4,2.08-1.19l.43-1.01-5.63-12.88Z"/>
  <path class="cls-1" d="M182,42h6.2l1.63,6.24c.32,1.16.49,1.94.51,2.35h.05c.03-.19.06-.39.11-.62.05-.23.73-2.88,2.05-7.97h5.45l-4.96,13.29c-.74,2.04-1.67,3.5-2.77,4.38-1.1.88-2.45,1.33-4.05,1.33-.53,0-1.09-.04-1.7-.13-.6-.09-1.14-.22-1.62-.39v-4.05c.22.16.55.31.98.44.43.13.84.2,1.23.2,1.04,0,1.74-.4,2.08-1.19l.43-1.01-5.63-12.88Z"/>
</svg>